<svg width="69" height="103" viewBox="0 0 69 103" fill="none" xmlns="http://www.w3.org/2000/svg">
<circle cx="34.5" cy="34" r="34" fill="#071621"/>
<path fill-rule="evenodd" clip-rule="evenodd" d="M31.5272 35.343C34.4108 39.4068 40.4782 38.6933 43.451 35.343L49.3638 29.3975C52.7052 25.7469 52.8241 21.0321 49.3638 17.5064C45.9867 14.0669 40.8498 14.0669 37.4727 17.5064L31.5272 23.452" fill="#071621"/>
<path d="M31.5272 35.343C34.4108 39.4068 40.4782 38.6933 43.451 35.343L49.3638 29.3975C52.7052 25.7469 52.8241 21.0321 49.3638 17.5064C45.9867 14.0669 40.8498 14.0669 37.4727 17.5064L31.5272 23.452" stroke="#D0F200" stroke-width="3.95787" stroke-linecap="round" stroke-linejoin="round"/>
<path fill-rule="evenodd" clip-rule="evenodd" d="M37.4728 32.5784C34.5892 28.5146 28.5545 29.02 25.5817 32.3703L19.6362 38.2415C16.2948 41.892 16.1759 46.6812 19.6362 50.2068C23.0133 53.6463 28.1502 53.6463 31.5273 50.2068L37.4728 44.2613" fill="#071621"/>
<path d="M37.4728 32.5784C34.5892 28.5146 28.5545 29.02 25.5817 32.3703L19.6362 38.2415C16.2948 41.892 16.1759 46.6812 19.6362 50.2068C23.0133 53.6463 28.1502 53.6463 31.5273 50.2068L37.4728 44.2613" stroke="#D0F200" stroke-width="3.95787" stroke-linecap="round" stroke-linejoin="round"/>
<path d="M0.985938 81.02H4.52594V92.02H10.6059V95H0.985938V81.02ZM13.4909 84.12C12.9576 84.12 12.5109 83.9467 12.1509 83.6C11.7909 83.2533 11.6109 82.8133 11.6109 82.28C11.6109 81.76 11.7909 81.3267 12.1509 80.98C12.5109 80.62 12.9576 80.44 13.4909 80.44C14.0109 80.44 14.4509 80.62 14.8109 80.98C15.1843 81.3267 15.3709 81.76 15.3709 82.28C15.3709 82.8 15.1843 83.24 14.8109 83.6C14.4509 83.9467 14.0109 84.12 13.4909 84.12ZM11.7309 85.4H15.2509V95H11.7309V85.4ZM17.1773 85.4H20.5773V86.46C20.9907 86.0067 21.4907 85.6667 22.0773 85.44C22.664 85.2133 23.2773 85.1 23.9173 85.1C25.264 85.1 26.2573 85.4533 26.8973 86.16C27.5507 86.8533 27.8773 87.8 27.8773 89V95H24.3573V89.46C24.3573 88.38 23.864 87.84 22.8773 87.84C22.424 87.84 22.0107 87.9467 21.6373 88.16C21.264 88.36 20.9507 88.6733 20.6973 89.1V95H17.1773V85.4ZM29.5797 80.22H33.0997V89.26L36.2597 85.4H40.2997L36.4797 90.04L40.8197 95H36.7797L33.0997 90.78V95H29.5797V80.22Z" fill="#EAEAEA"/>
<path d="M47.3964 95.3C45.7297 95.3 44.4431 94.88 43.5364 94.04C42.6297 93.2 42.1764 92.08 42.1764 90.68C42.1764 90.1867 42.2364 89.6733 42.3564 89.14L44.0764 81.02H47.6164L45.8764 89.18C45.7831 89.6733 45.7364 90.0467 45.7364 90.3C45.7364 90.8867 45.9164 91.32 46.2764 91.6C46.6364 91.88 47.2431 92.02 48.0964 92.02C49.0564 92.02 49.8097 91.7867 50.3564 91.32C50.9164 90.8533 51.2964 90.14 51.4964 89.18L53.2364 81.02H56.7764L55.0564 89.14C54.1764 93.2467 51.6231 95.3 47.3964 95.3ZM57.5533 85.4H60.9533L60.7333 86.36C61.8133 85.52 63.0399 85.1 64.4133 85.1C65.6399 85.1 66.6333 85.4533 67.3933 86.16C68.1666 86.8667 68.5533 87.8133 68.5533 89C68.5533 89.36 68.5133 89.7533 68.4333 90.18C68.0866 91.7533 67.3866 93 66.3333 93.92C65.2799 94.84 63.9133 95.3 62.2333 95.3C61.5933 95.3 61.0066 95.2067 60.4733 95.02C59.9399 94.8333 59.5133 94.5667 59.1933 94.22L58.0933 99.38H54.5933L57.5533 85.4ZM61.8933 92.56C62.6133 92.56 63.2399 92.3467 63.7733 91.92C64.3066 91.4933 64.6533 90.9133 64.8133 90.18C64.8666 89.9267 64.8933 89.68 64.8933 89.44C64.8933 88.9067 64.7333 88.5067 64.4133 88.24C64.0933 87.96 63.5933 87.82 62.9133 87.82C62.3799 87.82 61.8666 87.96 61.3733 88.24C60.8933 88.5067 60.5133 88.8733 60.2333 89.34L59.8733 91.04C59.9533 91.5067 60.1733 91.88 60.5333 92.16C60.9066 92.4267 61.3599 92.56 61.8933 92.56Z" fill="#D0F200"/>
</svg>
